<?xml version="1.0" encoding="utf-8"?>
<!-- Generator: Adobe Illustrator 22.1.0, SVG Export Plug-In . SVG Version: 6.00 Build 0)  -->
<svg version="1.1" id="Calque_1" xmlns="http://www.w3.org/2000/svg" xmlns:xlink="http://www.w3.org/1999/xlink" x="0px" y="0px"
	 viewBox="0 0 1072.9 278.9" style="enable-background:new 0 0 1072.9 278.9;" xml:space="preserve">
<style type="text/css">
	.st0{fill:#EC1C24;}
	.st1{fill:#191415;}
</style>
<path class="st0" d="M153.8,232.1h17c10.3,0,17,5.5,17,14.4v0.1c0,9.8-8.2,14.9-17.8,14.9h-11v16h-5.1 M170.1,256.9
	c7.5,0,12.5-4,12.5-10v-0.1c0-6.5-4.9-9.9-12.2-9.9h-11.5v20H170.1z"/>
<polyline class="st0" points="197.1,232.1 202.2,232.1 202.2,272.8 227.8,272.8 227.8,277.5 197.1,277.5 "/>
<path class="st0" d="M235.3,258.5v-26.4h5.1v26.1c0,9.8,5.2,15.3,13.9,15.3c8.4,0,13.7-5.1,13.7-15v-26.4h5.1v26
	c0,13.2-7.6,20.1-18.9,20.1C242.9,278.3,235.3,271.4,235.3,258.5"/>
<path class="st0" d="M282.2,270.9l3.2-3.8c4.7,4.3,9.3,6.4,15.6,6.4c6.1,0,10.1-3.2,10.1-7.7v-0.1c0-4.2-2.3-6.6-11.8-8.6
	c-10.4-2.3-15.2-5.6-15.2-13.1v-0.1c0-7.1,6.3-12.4,14.9-12.4c6.6,0,11.4,1.9,16,5.6l-3,4c-4.2-3.4-8.4-4.9-13.1-4.9
	c-5.9,0-9.7,3.2-9.7,7.3v0.1c0,4.3,2.3,6.7,12.3,8.8c10.1,2.2,14.8,5.9,14.8,12.8v0.1c0,7.8-6.5,12.8-15.5,12.8
	C293.6,278.2,287.7,275.8,282.2,270.9"/>
<path class="st0" d="M381.6,273.5c-3.8,3-8.7,4.9-14.3,4.9c-13.8,0-23.1-10.8-23.1-23.4v-0.1c0-12.5,9.4-23.5,23.2-23.5
	c13.8,0,23.1,10.8,23.1,23.4v0.1c0,5.7-1.9,11.1-5.5,15.2l6,5l-3.5,3.8 M377.9,270.2l-8.4-7.2l3.4-3.8l8.4,7.6c2.5-3.2,4-7.3,4-11.7
	v-0.1c0-10.3-7.5-18.8-17.9-18.8c-10.4,0-17.8,8.3-17.8,18.6v0.1c0,10.3,7.5,18.8,17.9,18.8C371.5,273.6,375.1,272.3,377.9,270.2"/>
<path class="st0" d="M400.7,258.5v-26.4h5.1v26.1c0,9.8,5.2,15.3,13.9,15.3c8.4,0,13.7-5.1,13.7-15v-26.4h5.1v26
	c0,13.2-7.6,20.1-18.9,20.1C408.3,278.3,400.7,271.4,400.7,258.5"/>
<polyline class="st0" points="450.6,232.1 483.5,232.1 483.5,236.8 455.8,236.8 455.8,252.3 480.5,252.3 480.5,257 455.8,257 
	455.8,272.9 483.8,272.9 483.8,277.5 450.6,277.5 "/>
<path class="st0" d="M513.6,232.1h15.8c14.3,0,24.1,9.8,24.1,22.6v0.1c0,12.8-9.9,22.7-24.1,22.7h-15.8 M529.3,272.8
	c11.5,0,18.8-7.8,18.8-17.8v-0.1c0-10.1-7.3-18-18.8-18h-10.6v35.9H529.3z"/>
<polyline class="st0" points="564.3,232.1 597.1,232.1 597.1,236.8 569.4,236.8 569.4,252.3 594.2,252.3 594.2,257 569.4,257 
	569.4,272.9 597.5,272.9 597.5,277.5 564.3,277.5 "/>
<polyline class="st0" points="627.3,232.1 632.4,232.1 632.4,272.8 657.9,272.8 657.9,277.5 627.3,277.5 "/>
<polyline class="st0" points="667.2,232.1 673.3,232.1 673.3,232.5 668,249.8 665.2,249.8 "/>
<polyline class="st0" points="683.3,232.1 716.1,232.1 716.1,236.8 688.4,236.8 688.4,252.3 713.2,252.3 713.2,257 688.4,257 
	688.4,272.9 716.5,272.9 716.5,277.5 683.3,277.5 "/>
<polyline class="st0" points="726.8,232.1 732,232.1 748.5,256.9 765.1,232.1 770.3,232.1 770.3,277.5 765.1,277.5 765.1,240.8 
	748.6,265.1 748.3,265.1 731.8,240.8 731.8,277.5 726.8,277.5 "/>
<path class="st0" d="M783.1,232.1h17c10.3,0,17,5.5,17,14.4v0.1c0,9.8-8.2,14.9-17.8,14.9h-11v16h-5.1 M799.5,256.9
	c7.5,0,12.5-4,12.5-10v-0.1c0-6.5-4.9-9.9-12.2-9.9h-11.5v20H799.5z"/>
<polyline class="st0" points="826.5,232.1 831.6,232.1 831.6,272.8 857.2,272.8 857.2,277.5 826.5,277.5 "/>
<path class="st0" d="M862,255v-0.1c0-12.5,9.4-23.5,23.2-23.5c13.8,0,23.1,10.8,23.1,23.4v0.1c0,12.5-9.4,23.5-23.2,23.5
	C871.3,278.3,862,267.5,862,255 M903,255v-0.1c0-10.3-7.5-18.8-17.9-18.8c-10.4,0-17.8,8.3-17.8,18.6v0.1c0,10.3,7.5,18.7,17.9,18.7
	C895.6,273.6,903,265.3,903,255"/>
<rect x="919.7" y="232.1" class="st0" width="5.1" height="45.4"/>
<path class="st1" d="M235.6,22.8c-6.3-2.4-9.3-9.1-6.8-15.4c2.3-6.1,9.1-9,15.3-6.6L275,12.8c6.3,2.4,9.3,9.1,6.8,15.4
	c-2.4,6.1-9.1,9-15.3,6.6"/>
<path class="st0" d="M832.7,26.4c0-11.4,9.2-20.7,20.7-20.7c11.4,0,20.7,9.2,20.7,20.7c0,11.4-9.2,20.7-20.7,20.7
	C841.9,47.1,832.7,37.9,832.7,26.4"/>
<path class="st1" d="M529.6,64.3c-0.4-0.1-0.7-0.1-1.2-0.1c-6.8,0-11.7,5.2-11.7,11.7v75.2c-7.7,6.6-17.6,11.5-25.6,11.5
	c-14.1,0-21.1-7-21.1-24.1V75.9c0-6.6-4.9-11.7-11.7-11.7c-6.6,0-11.7,5.2-11.7,11.7v62.6c0,31.6,15.5,43.4,38.2,43.4
	c11.2,0,22.4-4.2,31.9-12.3c0.1,6.4,5.3,11.5,11.6,11.5c6.4,0,11.6-5.2,11.6-11.6V75.9C540,69.9,535.4,64.9,529.6,64.3"/>
<path class="st1" d="M627.6,63.2c-8.8,0-20.3,4.1-30,12.1C597.4,69,592.3,64,586,64c-6.4,0-11.6,5.2-11.6,11.6v93.6
	c0,6.3,5.1,11.5,11.4,11.6c0,0,0.1,0,0.1,0c0,0,0,0,0.1,0c0,0,0,0,0.1,0c6.4,0,11.6-5.2,11.6-11.6V93.9c7.5-6.3,17.3-11.2,25.3-11.2
	c14.3,0,21.1,6.8,21.1,23.9v62.6c0,6.6,4.9,11.7,11.7,11.7c6.6,0,11.7-5.2,11.7-11.7v-62.6C667.4,74.9,651.7,63.2,627.6,63.2"/>
<path class="st1" d="M779.7,6.6c-6,0-11,4.6-11.6,10.4c-0.1,0.4-0.1,0.8-0.1,1.3v50.5c-5.6-2.3-13.8-5.6-22.7-5.6
	c-34.9,0-51.8,23.9-51.8,59.3c0,38.9,18.5,59.3,44.5,59.3c9.5,0,20.2-4,30.1-12.2c0.2,6.3,5.3,11.3,11.6,11.3
	c6.4,0,11.6-5.2,11.6-11.6v-151C791.3,11.9,786.1,6.6,779.7,6.6 M767.9,151.1c-9.1,8.4-19,11.5-25.6,11.5
	c-17.6,0-25.5-15.9-25.5-40.1c0-23.9,8-39.9,28.6-39.9c8.2,0,16.9,2.3,22.5,5.4V151.1z"/>
<path class="st1" d="M420.2,160.3H401V17c0-0.4,0-0.7,0-1c-0.5-6.3-5.4-10.9-11.8-10.9H356c-6.7,0-11.9,5.1-11.9,11.7
	c0,6.8,5.1,11.9,11.9,11.9h21.6v131.6h-19c-5.6,0-9.8,4.2-9.8,9.6c0,5.6,4.2,9.8,9.8,9.8h61.6c5.4,0,9.6-4.2,9.6-9.8
	C429.8,164.5,425.6,160.3,420.2,160.3"/>
<path class="st1" d="M305.6,164.1L274.4,60.5c-3.6-11.9-9-16.3-20-16.3c-10.6,0-16.3,4.7-19.8,16.3l-28.6,95.4H11.9
	c-6.7,0-11.9,5.1-11.9,11.7c0,6.8,5.1,11.9,11.9,11.9h200.2c0.9,0,1.8-0.1,2.6-0.3c4.5-0.4,8.3-3.4,9.6-7.8l6.6-23.2h47.4l6.8,23.2
	c1.4,4.7,5.6,7.9,10.5,7.9c5.9,0,11-5,11-11C306.5,167.1,306.2,165.8,305.6,164.1 M236,129.6l18.5-65l18.5,65H236z"/>
<path class="st1" d="M1061,155.9H868.2V75.6c0-5.6-4.2-10.1-9.8-10.1h-32.1c-5.4,0-9.6,4.5-9.6,9.8c0,5.6,4.2,9.8,9.6,9.8h18.5v94.3
	H1061c6.7,0,11.9-5.1,11.9-11.7C1072.9,161.1,1067.7,155.9,1061,155.9"/>
</svg>
